<svg xmlns="http://www.w3.org/2000/svg" xmlns:xlink="http://www.w3.org/1999/xlink" width="498.255" height="235.354" viewBox="0 0 498.255 235.354">
  <defs>
    <linearGradient id="linear-gradient" x1="0.368" y1="0.886" x2="0.655" y2="-0.184" gradientUnits="objectBoundingBox">
      <stop offset="0" stop-color="#3a73da"/>
      <stop offset="1" stop-color="#4b89e4" stop-opacity="0.949"/>
      <stop offset="1" stop-color="#4e8de6"/>
    </linearGradient>
  </defs>
  <g id="blue_cost" data-name="blue cost" transform="translate(-202.745 -522.033)">
    <g id="Group_1" data-name="Group 1">
      <line id="Line_1" data-name="Line 1" x2="434.025" transform="translate(229.566 568.614)" fill="none" stroke="#959595" stroke-width="1" stroke-dasharray="1" opacity="0.12"/>
      <line id="Line_8" data-name="Line 8" x2="434.025" transform="translate(230.739 526.384)" fill="none" stroke="#959595" stroke-width="1" stroke-dasharray="1" opacity="0.12"/>
      <line id="Line_2" data-name="Line 2" x2="434.025" transform="translate(229.566 613.29)" fill="none" stroke="#959595" stroke-width="1" stroke-dasharray="1" opacity="0.12"/>
      <line id="Line_3" data-name="Line 3" x2="434.025" transform="translate(229.566 657.966)" fill="none" stroke="#959595" stroke-width="1" stroke-dasharray="1" opacity="0.12"/>
      <line id="Line_4" data-name="Line 4" x2="434.025" transform="translate(230.739 702.641)" fill="none" stroke="#959595" stroke-width="1" stroke-dasharray="1" opacity="0.12"/>
      <line id="Line_5" data-name="Line 5" x2="434.025" transform="translate(229.566 756.887)" fill="none" stroke="#959595" stroke-width="1" stroke-dasharray="1" opacity="0.12"/>
      <path id="Path_1" data-name="Path 1" d="M0,0H190.033V232.262H0Z" transform="translate(367.399 524.038)" fill="#deedff" opacity="0.22"/>
      <rect id="Rectangle_1" data-name="Rectangle 1" width="26" height="54" transform="translate(262 702)" fill="#deedff"/>
      <rect id="Rectangle_2" data-name="Rectangle 2" width="26" height="64" transform="translate(299 692)" fill="#deedff"/>
      <rect id="Rectangle_3" data-name="Rectangle 3" width="25" height="75" transform="translate(337 681)" fill="#deedff"/>
      <rect id="Rectangle_4" data-name="Rectangle 4" width="26" height="98" transform="translate(374 658)" fill="url(#linear-gradient)"/>
      <rect id="Rectangle_5" data-name="Rectangle 5" width="25" height="129" transform="translate(413 627)" fill="url(#linear-gradient)"/>
      <rect id="Rectangle_6" data-name="Rectangle 6" width="25" height="129" transform="translate(450 627)" fill="url(#linear-gradient)"/>
      <rect id="Rectangle_7" data-name="Rectangle 7" width="26" height="129" transform="translate(487 627)" fill="url(#linear-gradient)"/>
      <rect id="Rectangle_8" data-name="Rectangle 8" width="25" height="129" transform="translate(525 627)" fill="url(#linear-gradient)"/>
      <rect id="Rectangle_9" data-name="Rectangle 9" width="26" height="84" transform="translate(562 672)" fill="#deedff"/>
      <rect id="Rectangle_10" data-name="Rectangle 10" width="24" height="84" transform="translate(601 672)" fill="#deedff"/>
      <rect id="Rectangle_11" data-name="Rectangle 11" width="26" height="54" transform="translate(637 702)" fill="#deedff"/>
      <rect id="Rectangle_12" data-name="Rectangle 12" width="26" height="54" transform="translate(675 702)" fill="#fff"/>
      <path id="Path_2" data-name="Path 2" d="M5.277-7.232a2.027,2.027,0,0,0-.14-.786,1.557,1.557,0,0,0-.383-.557,1.568,1.568,0,0,0-.571-.332,2.235,2.235,0,0,0-.711-.109,2.352,2.352,0,0,0-.643.089,3.124,3.124,0,0,0-.612.246,3.764,3.764,0,0,0-.574.376,4.148,4.148,0,0,0-.516.485v-1.2a3.352,3.352,0,0,1,1.056-.7,3.719,3.719,0,0,1,1.425-.243,3.441,3.441,0,0,1,1.114.174,2.555,2.555,0,0,1,.889.509,2.354,2.354,0,0,1,.591.827,2.79,2.79,0,0,1,.215,1.128,3.868,3.868,0,0,1-.133,1.053,3.256,3.256,0,0,1-.4.889,4.288,4.288,0,0,1-.68.8,9.635,9.635,0,0,1-.964.779q-.69.492-1.138.841a5.031,5.031,0,0,0-.711.653,1.894,1.894,0,0,0-.369.608,2.127,2.127,0,0,0-.106.7H6.795V0H.745V-.485A4.045,4.045,0,0,1,.882-1.593,2.876,2.876,0,0,1,1.333-2.5a5.046,5.046,0,0,1,.824-.861q.509-.431,1.248-.971A7.887,7.887,0,0,0,4.3-5.065a3.8,3.8,0,0,0,.578-.7,2.5,2.5,0,0,0,.311-.708A3.051,3.051,0,0,0,5.277-7.232Zm8.894,4.238a3.3,3.3,0,0,1-.246,1.3,2.84,2.84,0,0,1-.7,1,3.137,3.137,0,0,1-1.1.643A4.291,4.291,0,0,1,10.7.171a3.947,3.947,0,0,1-2.03-.41V-1.429a3.733,3.733,0,0,0,2.044.643,2.766,2.766,0,0,0,.96-.157,2.134,2.134,0,0,0,.728-.437,1.873,1.873,0,0,0,.461-.677,2.291,2.291,0,0,0,.161-.868,1.86,1.86,0,0,0-.643-1.5,2.818,2.818,0,0,0-1.866-.543q-.2,0-.417.007t-.437.017q-.219.01-.427.024t-.379.034L9.188-9.8H13.72v1.012H10.158l-.2,2.878q.219-.014.465-.024t.438-.01a4.4,4.4,0,0,1,1.395.205,2.955,2.955,0,0,1,1.042.584,2.451,2.451,0,0,1,.649.93A3.27,3.27,0,0,1,14.171-2.994Zm3.685-1.894a2.066,2.066,0,0,1-1.613-.667,2.557,2.557,0,0,1-.6-1.781,2.747,2.747,0,0,1,.636-1.917,2.2,2.2,0,0,1,1.716-.7,2.06,2.06,0,0,1,1.624.649,2.654,2.654,0,0,1,.578,1.825A2.685,2.685,0,0,1,19.547-5.6,2.183,2.183,0,0,1,17.855-4.888Zm.1-4.313a1.23,1.23,0,0,0-1.025.482A2.1,2.1,0,0,0,16.55-7.4a2.013,2.013,0,0,0,.369,1.289,1.218,1.218,0,0,0,1,.461,1.19,1.19,0,0,0,1-.479,2.153,2.153,0,0,0,.362-1.326,2.054,2.054,0,0,0-.359-1.289A1.175,1.175,0,0,0,17.951-9.2Zm6.467-.6L18.129.068h-.978L23.434-9.8ZM23.693.15A2.061,2.061,0,0,1,22.08-.52a2.56,2.56,0,0,1-.6-1.777,2.754,2.754,0,0,1,.643-1.924,2.2,2.2,0,0,1,1.709-.708,2.051,2.051,0,0,1,1.62.656,2.681,2.681,0,0,1,.581,1.839,2.675,2.675,0,0,1-.646,1.876A2.183,2.183,0,0,1,23.693.15Zm.1-4.307a1.232,1.232,0,0,0-1.029.479,2.11,2.11,0,0,0-.373,1.326,1.989,1.989,0,0,0,.369,1.275,1.218,1.218,0,0,0,1,.461,1.187,1.187,0,0,0,1-.482,2.156,2.156,0,0,0,.362-1.323,2.021,2.021,0,0,0-.359-1.285A1.186,1.186,0,0,0,23.789-4.156Z" transform="translate(202 532)" fill="#8590b3"/>
      <path id="Path_3" data-name="Path 3" d="M5.277-7.232a2.027,2.027,0,0,0-.14-.786,1.557,1.557,0,0,0-.383-.557,1.568,1.568,0,0,0-.571-.332,2.235,2.235,0,0,0-.711-.109,2.352,2.352,0,0,0-.643.089,3.124,3.124,0,0,0-.612.246,3.764,3.764,0,0,0-.574.376,4.148,4.148,0,0,0-.516.485v-1.2a3.352,3.352,0,0,1,1.056-.7,3.719,3.719,0,0,1,1.425-.243,3.441,3.441,0,0,1,1.114.174,2.555,2.555,0,0,1,.889.509,2.354,2.354,0,0,1,.591.827,2.79,2.79,0,0,1,.215,1.128,3.868,3.868,0,0,1-.133,1.053,3.256,3.256,0,0,1-.4.889,4.288,4.288,0,0,1-.68.8,9.635,9.635,0,0,1-.964.779q-.69.492-1.138.841a5.031,5.031,0,0,0-.711.653,1.894,1.894,0,0,0-.369.608,2.127,2.127,0,0,0-.106.7H6.795V0H.745V-.485A4.045,4.045,0,0,1,.882-1.593,2.876,2.876,0,0,1,1.333-2.5a5.046,5.046,0,0,1,.824-.861q.509-.431,1.248-.971A7.887,7.887,0,0,0,4.3-5.065a3.8,3.8,0,0,0,.578-.7,2.5,2.5,0,0,0,.311-.708A3.051,3.051,0,0,0,5.277-7.232Zm9.242,2.29A9.63,9.63,0,0,1,14.3-2.762a5.081,5.081,0,0,1-.643,1.6,2.892,2.892,0,0,1-1.032.991,2.826,2.826,0,0,1-1.391.338A2.639,2.639,0,0,1,9.916-.154,2.758,2.758,0,0,1,8.941-1.1a4.8,4.8,0,0,1-.6-1.528A9.447,9.447,0,0,1,8.135-4.7a10.694,10.694,0,0,1,.215-2.27,5.191,5.191,0,0,1,.632-1.651,2.814,2.814,0,0,1,1.036-1,2.908,2.908,0,0,1,1.418-.338Q14.52-9.967,14.52-4.942Zm-1.148.109q0-4.184-1.989-4.184-2.1,0-2.1,4.259,0,3.972,2.058,3.972Q13.371-.786,13.371-4.833Zm4.484-.055a2.066,2.066,0,0,1-1.613-.667,2.557,2.557,0,0,1-.6-1.781,2.747,2.747,0,0,1,.636-1.917,2.2,2.2,0,0,1,1.716-.7,2.06,2.06,0,0,1,1.624.649,2.654,2.654,0,0,1,.578,1.825A2.685,2.685,0,0,1,19.547-5.6,2.183,2.183,0,0,1,17.855-4.888Zm.1-4.313a1.23,1.23,0,0,0-1.025.482A2.1,2.1,0,0,0,16.55-7.4a2.013,2.013,0,0,0,.369,1.289,1.218,1.218,0,0,0,1,.461,1.19,1.19,0,0,0,1-.479,2.153,2.153,0,0,0,.362-1.326,2.054,2.054,0,0,0-.359-1.289A1.175,1.175,0,0,0,17.951-9.2Zm6.467-.6L18.129.068h-.978L23.434-9.8ZM23.693.15A2.061,2.061,0,0,1,22.08-.52a2.56,2.56,0,0,1-.6-1.777,2.754,2.754,0,0,1,.643-1.924,2.2,2.2,0,0,1,1.709-.708,2.051,2.051,0,0,1,1.62.656,2.681,2.681,0,0,1,.581,1.839,2.675,2.675,0,0,1-.646,1.876A2.183,2.183,0,0,1,23.693.15Zm.1-4.307a1.232,1.232,0,0,0-1.029.479,2.11,2.11,0,0,0-.373,1.326,1.989,1.989,0,0,0,.369,1.275,1.218,1.218,0,0,0,1,.461,1.187,1.187,0,0,0,1-.482,2.156,2.156,0,0,0,.362-1.323,2.021,2.021,0,0,0-.359-1.285A1.186,1.186,0,0,0,23.789-4.156Z" transform="translate(202 574)" fill="#8590b3"/>
      <path id="Path_4" data-name="Path 4" d="M4.949,0H3.828V-8.47a2.6,2.6,0,0,1-.379.3,6.184,6.184,0,0,1-.561.332q-.311.164-.656.308a4.769,4.769,0,0,1-.673.226V-8.442a6.517,6.517,0,0,0,.783-.277q.414-.174.813-.39T3.91-9.56a6,6,0,0,0,.615-.461h.424Zm9.222-2.994a3.3,3.3,0,0,1-.246,1.3,2.84,2.84,0,0,1-.7,1,3.137,3.137,0,0,1-1.1.643A4.291,4.291,0,0,1,10.7.171a3.947,3.947,0,0,1-2.03-.41V-1.429a3.733,3.733,0,0,0,2.044.643,2.766,2.766,0,0,0,.96-.157,2.134,2.134,0,0,0,.728-.437,1.873,1.873,0,0,0,.461-.677,2.291,2.291,0,0,0,.161-.868,1.86,1.86,0,0,0-.643-1.5,2.818,2.818,0,0,0-1.866-.543q-.2,0-.417.007t-.437.017q-.219.01-.427.024t-.379.034L9.188-9.8H13.72v1.012H10.158l-.2,2.878q.219-.014.465-.024t.438-.01a4.4,4.4,0,0,1,1.395.205,2.955,2.955,0,0,1,1.042.584,2.451,2.451,0,0,1,.649.93A3.27,3.27,0,0,1,14.171-2.994Zm3.685-1.894a2.066,2.066,0,0,1-1.613-.667,2.557,2.557,0,0,1-.6-1.781,2.747,2.747,0,0,1,.636-1.917,2.2,2.2,0,0,1,1.716-.7,2.06,2.06,0,0,1,1.624.649,2.654,2.654,0,0,1,.578,1.825A2.685,2.685,0,0,1,19.547-5.6,2.183,2.183,0,0,1,17.855-4.888Zm.1-4.313a1.23,1.23,0,0,0-1.025.482A2.1,2.1,0,0,0,16.55-7.4a2.013,2.013,0,0,0,.369,1.289,1.218,1.218,0,0,0,1,.461,1.19,1.19,0,0,0,1-.479,2.153,2.153,0,0,0,.362-1.326,2.054,2.054,0,0,0-.359-1.289A1.175,1.175,0,0,0,17.951-9.2Zm6.467-.6L18.129.068h-.978L23.434-9.8ZM23.693.15A2.061,2.061,0,0,1,22.08-.52a2.56,2.56,0,0,1-.6-1.777,2.754,2.754,0,0,1,.643-1.924,2.2,2.2,0,0,1,1.709-.708,2.051,2.051,0,0,1,1.62.656,2.681,2.681,0,0,1,.581,1.839,2.675,2.675,0,0,1-.646,1.876A2.183,2.183,0,0,1,23.693.15Zm.1-4.307a1.232,1.232,0,0,0-1.029.479,2.11,2.11,0,0,0-.373,1.326,1.989,1.989,0,0,0,.369,1.275,1.218,1.218,0,0,0,1,.461,1.187,1.187,0,0,0,1-.482,2.156,2.156,0,0,0,.362-1.323,2.021,2.021,0,0,0-.359-1.285A1.186,1.186,0,0,0,23.789-4.156Z" transform="translate(202 619)" fill="#8590b3"/>
      <path id="Path_5" data-name="Path 5" d="M4.949,0H3.828V-8.47a2.6,2.6,0,0,1-.379.3,6.184,6.184,0,0,1-.561.332q-.311.164-.656.308a4.769,4.769,0,0,1-.673.226V-8.442a6.517,6.517,0,0,0,.783-.277q.414-.174.813-.39T3.91-9.56a6,6,0,0,0,.615-.461h.424Zm9.57-4.942A9.63,9.63,0,0,1,14.3-2.762a5.081,5.081,0,0,1-.643,1.6,2.892,2.892,0,0,1-1.032.991,2.826,2.826,0,0,1-1.391.338A2.639,2.639,0,0,1,9.916-.154,2.758,2.758,0,0,1,8.941-1.1a4.8,4.8,0,0,1-.6-1.528A9.447,9.447,0,0,1,8.135-4.7a10.694,10.694,0,0,1,.215-2.27,5.191,5.191,0,0,1,.632-1.651,2.814,2.814,0,0,1,1.036-1,2.908,2.908,0,0,1,1.418-.338Q14.52-9.967,14.52-4.942Zm-1.148.109q0-4.184-1.989-4.184-2.1,0-2.1,4.259,0,3.972,2.058,3.972Q13.371-.786,13.371-4.833Zm4.484-.055a2.066,2.066,0,0,1-1.613-.667,2.557,2.557,0,0,1-.6-1.781,2.747,2.747,0,0,1,.636-1.917,2.2,2.2,0,0,1,1.716-.7,2.06,2.06,0,0,1,1.624.649,2.654,2.654,0,0,1,.578,1.825A2.685,2.685,0,0,1,19.547-5.6,2.183,2.183,0,0,1,17.855-4.888Zm.1-4.313a1.23,1.23,0,0,0-1.025.482A2.1,2.1,0,0,0,16.55-7.4a2.013,2.013,0,0,0,.369,1.289,1.218,1.218,0,0,0,1,.461,1.19,1.19,0,0,0,1-.479,2.153,2.153,0,0,0,.362-1.326,2.054,2.054,0,0,0-.359-1.289A1.175,1.175,0,0,0,17.951-9.2Zm6.467-.6L18.129.068h-.978L23.434-9.8ZM23.693.15A2.061,2.061,0,0,1,22.08-.52a2.56,2.56,0,0,1-.6-1.777,2.754,2.754,0,0,1,.643-1.924,2.2,2.2,0,0,1,1.709-.708,2.051,2.051,0,0,1,1.62.656,2.681,2.681,0,0,1,.581,1.839,2.675,2.675,0,0,1-.646,1.876A2.183,2.183,0,0,1,23.693.15Zm.1-4.307a1.232,1.232,0,0,0-1.029.479,2.11,2.11,0,0,0-.373,1.326,1.989,1.989,0,0,0,.369,1.275,1.218,1.218,0,0,0,1,.461,1.187,1.187,0,0,0,1-.482,2.156,2.156,0,0,0,.362-1.323,2.021,2.021,0,0,0-.359-1.285A1.186,1.186,0,0,0,23.789-4.156Z" transform="translate(202 663)" fill="#8590b3"/>
      <path id="Path_6" data-name="Path 6" d="M6.624-2.994a3.3,3.3,0,0,1-.246,1.3,2.84,2.84,0,0,1-.7,1,3.137,3.137,0,0,1-1.1.643A4.291,4.291,0,0,1,3.151.171a3.947,3.947,0,0,1-2.03-.41V-1.429a3.733,3.733,0,0,0,2.044.643,2.766,2.766,0,0,0,.96-.157,2.134,2.134,0,0,0,.728-.437,1.873,1.873,0,0,0,.461-.677,2.291,2.291,0,0,0,.161-.868,1.86,1.86,0,0,0-.643-1.5A2.818,2.818,0,0,0,2.967-4.97q-.2,0-.417.007t-.437.017q-.219.01-.427.024t-.379.034L1.641-9.8H6.173v1.012H2.611l-.2,2.878q.219-.014.465-.024t.438-.01a4.4,4.4,0,0,1,1.395.205,2.955,2.955,0,0,1,1.042.584,2.451,2.451,0,0,1,.649.93A3.27,3.27,0,0,1,6.624-2.994Zm3.685-1.894A2.066,2.066,0,0,1,8.7-5.554a2.557,2.557,0,0,1-.6-1.781,2.747,2.747,0,0,1,.636-1.917,2.2,2.2,0,0,1,1.716-.7,2.06,2.06,0,0,1,1.624.649,2.654,2.654,0,0,1,.578,1.825A2.685,2.685,0,0,1,12-5.6,2.183,2.183,0,0,1,10.309-4.888ZM10.4-9.2a1.23,1.23,0,0,0-1.025.482A2.1,2.1,0,0,0,9-7.4a2.013,2.013,0,0,0,.369,1.289,1.218,1.218,0,0,0,1,.461,1.19,1.19,0,0,0,1-.479,2.153,2.153,0,0,0,.362-1.326,2.054,2.054,0,0,0-.359-1.289A1.175,1.175,0,0,0,10.4-9.2Zm6.467-.6L10.582.068H9.6L15.887-9.8ZM16.146.15a2.061,2.061,0,0,1-1.613-.67,2.56,2.56,0,0,1-.6-1.777,2.754,2.754,0,0,1,.643-1.924,2.2,2.2,0,0,1,1.709-.708,2.051,2.051,0,0,1,1.62.656,2.681,2.681,0,0,1,.581,1.839,2.675,2.675,0,0,1-.646,1.876A2.183,2.183,0,0,1,16.146.15Zm.1-4.307a1.232,1.232,0,0,0-1.029.479,2.11,2.11,0,0,0-.373,1.326,1.989,1.989,0,0,0,.369,1.275,1.218,1.218,0,0,0,1,.461,1.187,1.187,0,0,0,1-.482,2.156,2.156,0,0,0,.362-1.323,2.021,2.021,0,0,0-.359-1.285A1.186,1.186,0,0,0,16.242-4.156Z" transform="translate(211 708)" fill="#8590b3"/>
      <path id="Path_7" data-name="Path 7" d="M6.973-4.942A9.63,9.63,0,0,1,6.75-2.762a5.081,5.081,0,0,1-.643,1.6,2.892,2.892,0,0,1-1.032.991A2.826,2.826,0,0,1,3.685.171,2.639,2.639,0,0,1,2.369-.154,2.758,2.758,0,0,1,1.395-1.1a4.8,4.8,0,0,1-.6-1.528A9.447,9.447,0,0,1,.588-4.7,10.694,10.694,0,0,1,.8-6.973a5.191,5.191,0,0,1,.632-1.651,2.814,2.814,0,0,1,1.036-1A2.908,2.908,0,0,1,3.89-9.967Q6.973-9.967,6.973-4.942Zm-1.148.109q0-4.184-1.989-4.184-2.1,0-2.1,4.259,0,3.972,2.058,3.972Q5.824-.786,5.824-4.833Zm4.484-.055A2.066,2.066,0,0,1,8.7-5.554a2.557,2.557,0,0,1-.6-1.781,2.747,2.747,0,0,1,.636-1.917,2.2,2.2,0,0,1,1.716-.7,2.06,2.06,0,0,1,1.624.649,2.654,2.654,0,0,1,.578,1.825A2.685,2.685,0,0,1,12-5.6,2.183,2.183,0,0,1,10.309-4.888ZM10.4-9.2a1.23,1.23,0,0,0-1.025.482A2.1,2.1,0,0,0,9-7.4a2.013,2.013,0,0,0,.369,1.289,1.218,1.218,0,0,0,1,.461,1.19,1.19,0,0,0,1-.479,2.153,2.153,0,0,0,.362-1.326,2.054,2.054,0,0,0-.359-1.289A1.175,1.175,0,0,0,10.4-9.2Zm6.467-.6L10.582.068H9.6L15.887-9.8ZM16.146.15a2.061,2.061,0,0,1-1.613-.67,2.56,2.56,0,0,1-.6-1.777,2.754,2.754,0,0,1,.643-1.924,2.2,2.2,0,0,1,1.709-.708,2.051,2.051,0,0,1,1.62.656,2.681,2.681,0,0,1,.581,1.839,2.675,2.675,0,0,1-.646,1.876A2.183,2.183,0,0,1,16.146.15Zm.1-4.307a1.232,1.232,0,0,0-1.029.479,2.11,2.11,0,0,0-.373,1.326,1.989,1.989,0,0,0,.369,1.275,1.218,1.218,0,0,0,1,.461,1.187,1.187,0,0,0,1-.482,2.156,2.156,0,0,0,.362-1.323,2.021,2.021,0,0,0-.359-1.285A1.186,1.186,0,0,0,16.242-4.156Z" transform="translate(210 753)" fill="#8590b3"/>
      <line id="Line_6" data-name="Line 6" y2="232.848" transform="translate(367.985 524.038)" fill="none" stroke="#3a73da" stroke-width="0.5" stroke-dasharray="2"/>
      <line id="Line_7" data-name="Line 7" y2="232.848" transform="translate(556.845 524.038)" fill="none" stroke="#3a73da" stroke-width="0.5" stroke-dasharray="2"/>
    </g>
  </g>
</svg>
